<?xml version="1.0" encoding="utf-8" standalone="no"?>
<!DOCTYPE svg PUBLIC "-//W3C//DTD SVG 1.1//EN"
  "http://www.w3.org/Graphics/SVG/1.1/DTD/svg11.dtd">
<svg xmlns:xlink="http://www.w3.org/1999/xlink" width="1382.4pt" height="722.88pt" viewBox="0 0 1382.4 722.88" xmlns="http://www.w3.org/2000/svg" version="1.1">
 <metadata>
  <rdf:RDF xmlns:dc="http://purl.org/dc/elements/1.1/" xmlns:cc="http://creativecommons.org/ns#" xmlns:rdf="http://www.w3.org/1999/02/22-rdf-syntax-ns#">
   <cc:Work>
    <dc:type rdf:resource="http://purl.org/dc/dcmitype/StillImage"/>
    <dc:date>2024-11-15T17:04:25.708609</dc:date>
    <dc:format>image/svg+xml</dc:format>
    <dc:creator>
     <cc:Agent>
      <dc:title>Matplotlib v3.7.0, https://matplotlib.org/</dc:title>
     </cc:Agent>
    </dc:creator>
   </cc:Work>
  </rdf:RDF>
 </metadata>
 <defs>
  <style type="text/css">*{stroke-linejoin: round; stroke-linecap: butt}</style>
 </defs>
 <g id="figure_1">
  <g id="patch_1">
   <path d="M 0 722.88 
L 1382.4 722.88 
L 1382.4 0 
L 0 0 
z
" style="fill: #ffffff"/>
  </g>
  <g id="axes_1">
   <g id="patch_2">
    <path d="M 172.8 643.3632 
L 1244.16 643.3632 
L 1244.16 86.7456 
L 172.8 86.7456 
z
" style="fill: #ffffff"/>
   </g>
   <g id="matplotlib.axis_1">
    <g id="xtick_1">
     <g id="line2d_1">
      <path d="M 202.397312 643.3632 
L 202.397312 86.7456 
" clip-path="url(#p4d842d0135)" style="fill: none; stroke: #b0b0b0; stroke-width: 0.8; stroke-linecap: square"/>
     </g>
     <g id="line2d_2">
      <defs>
       <path id="m654582506e" d="M 0 0 
L 0 3.5 
" style="stroke: #000000; stroke-width: 0.8"/>
      </defs>
      <g>
       <use xlink:href="#m654582506e" x="202.397312" y="643.3632" style="stroke: #000000; stroke-width: 0.8"/>
      </g>
     </g>
     <g id="text_1">
      <!-- −20 -->
      <g transform="translate(191.844968 657.961637) scale(0.1 -0.1)">
       <defs>
        <path id="DejaVuSans-2212" d="M 678 2272 
L 4684 2272 
L 4684 1741 
L 678 1741 
L 678 2272 
z
" transform="scale(0.015625)"/>
        <path id="DejaVuSans-32" d="M 1228 531 
L 3431 531 
L 3431 0 
L 469 0 
L 469 531 
Q 828 903 1448 1529 
Q 2069 2156 2228 2338 
Q 2531 2678 2651 2914 
Q 2772 3150 2772 3378 
Q 2772 3750 2511 3984 
Q 2250 4219 1831 4219 
Q 1534 4219 1204 4116 
Q 875 4013 500 3803 
L 500 4441 
Q 881 4594 1212 4672 
Q 1544 4750 1819 4750 
Q 2544 4750 2975 4387 
Q 3406 4025 3406 3419 
Q 3406 3131 3298 2873 
Q 3191 2616 2906 2266 
Q 2828 2175 2409 1742 
Q 1991 1309 1228 531 
z
" transform="scale(0.015625)"/>
        <path id="DejaVuSans-30" d="M 2034 4250 
Q 1547 4250 1301 3770 
Q 1056 3291 1056 2328 
Q 1056 1369 1301 889 
Q 1547 409 2034 409 
Q 2525 409 2770 889 
Q 3016 1369 3016 2328 
Q 3016 3291 2770 3770 
Q 2525 4250 2034 4250 
z
M 2034 4750 
Q 2819 4750 3233 4129 
Q 3647 3509 3647 2328 
Q 3647 1150 3233 529 
Q 2819 -91 2034 -91 
Q 1250 -91 836 529 
Q 422 1150 422 2328 
Q 422 3509 836 4129 
Q 1250 4750 2034 4750 
z
" transform="scale(0.015625)"/>
       </defs>
       <use xlink:href="#DejaVuSans-2212"/>
       <use xlink:href="#DejaVuSans-32" x="83.789062"/>
       <use xlink:href="#DejaVuSans-30" x="147.412109"/>
      </g>
     </g>
    </g>
    <g id="xtick_2">
     <g id="line2d_3">
      <path d="M 432.447944 643.3632 
L 432.447944 86.7456 
" clip-path="url(#p4d842d0135)" style="fill: none; stroke: #b0b0b0; stroke-width: 0.8; stroke-linecap: square"/>
     </g>
     <g id="line2d_4">
      <g>
       <use xlink:href="#m654582506e" x="432.447944" y="643.3632" style="stroke: #000000; stroke-width: 0.8"/>
      </g>
     </g>
     <g id="text_2">
      <!-- −10 -->
      <g transform="translate(421.8956 657.961637) scale(0.1 -0.1)">
       <defs>
        <path id="DejaVuSans-31" d="M 794 531 
L 1825 531 
L 1825 4091 
L 703 3866 
L 703 4441 
L 1819 4666 
L 2450 4666 
L 2450 531 
L 3481 531 
L 3481 0 
L 794 0 
L 794 531 
z
" transform="scale(0.015625)"/>
       </defs>
       <use xlink:href="#DejaVuSans-2212"/>
       <use xlink:href="#DejaVuSans-31" x="83.789062"/>
       <use xlink:href="#DejaVuSans-30" x="147.412109"/>
      </g>
     </g>
    </g>
    <g id="xtick_3">
     <g id="line2d_5">
      <path d="M 662.498576 643.3632 
L 662.498576 86.7456 
" clip-path="url(#p4d842d0135)" style="fill: none; stroke: #b0b0b0; stroke-width: 0.8; stroke-linecap: square"/>
     </g>
     <g id="line2d_6">
      <g>
       <use xlink:href="#m654582506e" x="662.498576" y="643.3632" style="stroke: #000000; stroke-width: 0.8"/>
      </g>
     </g>
     <g id="text_3">
      <!-- 0 -->
      <g transform="translate(659.317326 657.961637) scale(0.1 -0.1)">
       <use xlink:href="#DejaVuSans-30"/>
      </g>
     </g>
    </g>
    <g id="xtick_4">
     <g id="line2d_7">
      <path d="M 892.549208 643.3632 
L 892.549208 86.7456 
" clip-path="url(#p4d842d0135)" style="fill: none; stroke: #b0b0b0; stroke-width: 0.8; stroke-linecap: square"/>
     </g>
     <g id="line2d_8">
      <g>
       <use xlink:href="#m654582506e" x="892.549208" y="643.3632" style="stroke: #000000; stroke-width: 0.8"/>
      </g>
     </g>
     <g id="text_4">
      <!-- 10 -->
      <g transform="translate(886.186708 657.961637) scale(0.1 -0.1)">
       <use xlink:href="#DejaVuSans-31"/>
       <use xlink:href="#DejaVuSans-30" x="63.623047"/>
      </g>
     </g>
    </g>
    <g id="xtick_5">
     <g id="line2d_9">
      <path d="M 1122.59984 643.3632 
L 1122.59984 86.7456 
" clip-path="url(#p4d842d0135)" style="fill: none; stroke: #b0b0b0; stroke-width: 0.8; stroke-linecap: square"/>
     </g>
     <g id="line2d_10">
      <g>
       <use xlink:href="#m654582506e" x="1122.59984" y="643.3632" style="stroke: #000000; stroke-width: 0.8"/>
      </g>
     </g>
     <g id="text_5">
      <!-- 20 -->
      <g transform="translate(1116.23734 657.961637) scale(0.1 -0.1)">
       <use xlink:href="#DejaVuSans-32"/>
       <use xlink:href="#DejaVuSans-30" x="63.623047"/>
      </g>
     </g>
    </g>
   </g>
   <g id="matplotlib.axis_2">
    <g id="ytick_1">
     <g id="line2d_11">
      <path d="M 172.8 572.147664 
L 1244.16 572.147664 
" clip-path="url(#p4d842d0135)" style="fill: none; stroke: #b0b0b0; stroke-width: 0.8; stroke-linecap: square"/>
     </g>
     <g id="line2d_12">
      <defs>
       <path id="mae5666a55e" d="M 0 0 
L -3.5 0 
" style="stroke: #000000; stroke-width: 0.8"/>
      </defs>
      <g>
       <use xlink:href="#mae5666a55e" x="172.8" y="572.147664" style="stroke: #000000; stroke-width: 0.8"/>
      </g>
     </g>
     <g id="text_6">
      <!-- −10 -->
      <g transform="translate(144.695312 575.946883) scale(0.1 -0.1)">
       <use xlink:href="#DejaVuSans-2212"/>
       <use xlink:href="#DejaVuSans-31" x="83.789062"/>
       <use xlink:href="#DejaVuSans-30" x="147.412109"/>
      </g>
     </g>
    </g>
    <g id="ytick_2">
     <g id="line2d_13">
      <path d="M 172.8 457.122348 
L 1244.16 457.122348 
" clip-path="url(#p4d842d0135)" style="fill: none; stroke: #b0b0b0; stroke-width: 0.8; stroke-linecap: square"/>
     </g>
     <g id="line2d_14">
      <g>
       <use xlink:href="#mae5666a55e" x="172.8" y="457.122348" style="stroke: #000000; stroke-width: 0.8"/>
      </g>
     </g>
     <g id="text_7">
      <!-- −5 -->
      <g transform="translate(151.057812 460.921567) scale(0.1 -0.1)">
       <defs>
        <path id="DejaVuSans-35" d="M 691 4666 
L 3169 4666 
L 3169 4134 
L 1269 4134 
L 1269 2991 
Q 1406 3038 1543 3061 
Q 1681 3084 1819 3084 
Q 2600 3084 3056 2656 
Q 3513 2228 3513 1497 
Q 3513 744 3044 326 
Q 2575 -91 1722 -91 
Q 1428 -91 1123 -41 
Q 819 9 494 109 
L 494 744 
Q 775 591 1075 516 
Q 1375 441 1709 441 
Q 2250 441 2565 725 
Q 2881 1009 2881 1497 
Q 2881 1984 2565 2268 
Q 2250 2553 1709 2553 
Q 1456 2553 1204 2497 
Q 953 2441 691 2322 
L 691 4666 
z
" transform="scale(0.015625)"/>
       </defs>
       <use xlink:href="#DejaVuSans-2212"/>
       <use xlink:href="#DejaVuSans-35" x="83.789062"/>
      </g>
     </g>
    </g>
    <g id="ytick_3">
     <g id="line2d_15">
      <path d="M 172.8 342.097032 
L 1244.16 342.097032 
" clip-path="url(#p4d842d0135)" style="fill: none; stroke: #b0b0b0; stroke-width: 0.8; stroke-linecap: square"/>
     </g>
     <g id="line2d_16">
      <g>
       <use xlink:href="#mae5666a55e" x="172.8" y="342.097032" style="stroke: #000000; stroke-width: 0.8"/>
      </g>
     </g>
     <g id="text_8">
      <!-- 0 -->
      <g transform="translate(159.4375 345.896251) scale(0.1 -0.1)">
       <use xlink:href="#DejaVuSans-30"/>
      </g>
     </g>
    </g>
    <g id="ytick_4">
     <g id="line2d_17">
      <path d="M 172.8 227.071716 
L 1244.16 227.071716 
" clip-path="url(#p4d842d0135)" style="fill: none; stroke: #b0b0b0; stroke-width: 0.8; stroke-linecap: square"/>
     </g>
     <g id="line2d_18">
      <g>
       <use xlink:href="#mae5666a55e" x="172.8" y="227.071716" style="stroke: #000000; stroke-width: 0.8"/>
      </g>
     </g>
     <g id="text_9">
      <!-- 5 -->
      <g transform="translate(159.4375 230.870935) scale(0.1 -0.1)">
       <use xlink:href="#DejaVuSans-35"/>
      </g>
     </g>
    </g>
    <g id="ytick_5">
     <g id="line2d_19">
      <path d="M 172.8 112.0464 
L 1244.16 112.0464 
" clip-path="url(#p4d842d0135)" style="fill: none; stroke: #b0b0b0; stroke-width: 0.8; stroke-linecap: square"/>
     </g>
     <g id="line2d_20">
      <g>
       <use xlink:href="#mae5666a55e" x="172.8" y="112.0464" style="stroke: #000000; stroke-width: 0.8"/>
      </g>
     </g>
     <g id="text_10">
      <!-- 10 -->
      <g transform="translate(153.075 115.845619) scale(0.1 -0.1)">
       <use xlink:href="#DejaVuSans-31"/>
       <use xlink:href="#DejaVuSans-30" x="63.623047"/>
      </g>
     </g>
    </g>
   </g>
   <g id="line2d_21">
    <path d="M 708.508703 112.0464 
L 709.668158 112.23469 
L 712.069886 112.856549 
L 715.382615 113.952755 
L 719.440709 115.534992 
L 724.161348 117.617856 
L 729.461714 120.201985 
L 735.341808 123.321432 
L 741.635994 126.914788 
L 748.34427 131.00163 
L 755.466638 135.604784 
L 762.83746 140.634127 
L 770.539555 146.161905 
L 778.407287 152.0841 
L 786.440655 158.410387 
L 794.556841 165.084514 
L 802.755846 172.114751 
L 810.95485 179.437671 
L 819.153855 187.060218 
L 827.270041 194.911654 
L 835.220591 202.91259 
L 843.005504 211.062652 
L 850.541963 219.273325 
L 857.829967 227.541168 
L 864.786698 235.766576 
L 871.412156 243.941279 
L 877.706341 252.06044 
L 883.586436 260.00889 
L 888.96962 267.653234 
L 893.938714 275.091195 
L 898.410898 282.179682 
L 902.386173 288.889281 
L 905.864539 295.189263 
L 908.845995 301.047672 
L 911.247724 306.243004 
L 913.152543 310.883677 
L 914.477635 314.660649 
L 915.305817 317.656906 
L 915.554271 319.091969 
L 915.18619 321.081336 
L 914.358008 324.015658 
L 913.069725 327.725295 
L 911.22932 332.303515 
L 908.928813 337.412297 
L 906.076185 343.186426 
L 902.763456 349.382708 
L 898.898606 356.128997 
L 894.573654 363.225012 
L 889.788601 370.648598 
L 884.543446 378.377445 
L 878.838191 386.389255 
L 872.672834 394.661689 
L 866.139396 403.056448 
L 859.237877 411.564583 
L 851.968277 420.174757 
L 844.330596 428.873568 
L 836.416854 437.546735 
L 828.319072 446.092776 
L 819.945229 454.605058 
L 811.479365 462.894797 
L 802.829462 471.052423 
L 794.179558 478.906225 
L 785.437634 486.543159 
L 776.78773 493.807136 
L 768.137826 500.781427 
L 759.671963 507.324842 
L 751.29812 513.516899 
L 743.200338 519.231151 
L 735.378616 524.483176 
L 727.832956 529.285207 
L 720.655376 533.592306 
L 713.937897 537.369473 
L 707.68052 540.638738 
L 701.975265 543.376095 
L 696.82213 545.607184 
L 692.405158 547.28623 
L 688.816368 548.428181 
L 686.239801 549.041535 
L 685.227579 549.117188 
L 683.387173 548.783547 
L 680.350505 548.000235 
L 676.393634 546.744411 
L 671.608581 544.985536 
L 666.179386 542.749425 
L 660.10605 540.003619 
L 653.480591 536.759664 
L 646.395032 533.039899 
L 638.849371 528.823391 
L 630.935629 524.142137 
L 622.745827 519.036936 
L 614.279964 513.49524 
L 605.63006 507.565701 
L 596.796116 501.237674 
L 587.870151 494.567284 
L 578.944186 487.618633 
L 570.018222 480.387964 
L 561.184278 472.947084 
L 552.442354 465.294345 
L 543.88447 457.509953 
L 535.510627 449.594988 
L 527.320825 441.547096 
L 519.499103 433.5519 
L 511.953442 425.522414 
L 504.775863 417.560817 
L 497.966364 409.674371 
L 491.616967 401.981159 
L 485.72767 394.498027 
L 480.298475 387.240274 
L 475.421402 380.354872 
L 471.00443 373.735341 
L 467.139579 367.544157 
L 463.82685 361.822381 
L 461.066243 356.618592 
L 458.857756 351.993463 
L 457.201392 348.028873 
L 456.097149 344.850307 
L 455.545027 342.713477 
L 455.453007 342.097032 
L 455.857896 340.107665 
L 456.768897 337.173343 
L 458.186009 333.463706 
L 460.109232 329.101643 
L 462.538567 324.167749 
L 465.474013 318.721202 
L 468.91557 312.808782 
L 472.863239 306.46946 
L 477.317019 299.737022 
L 482.276911 292.641706 
L 487.742914 285.211298 
L 493.715028 277.471918 
L 500.092032 269.57131 
L 506.975147 261.401034 
L 514.263151 253.099363 
L 521.956044 244.678293 
L 529.952604 236.256145 
L 538.252831 227.836694 
L 546.856724 219.426381 
L 555.663063 211.127699 
L 564.671845 202.941659 
L 573.883073 194.872106 
L 583.195522 187.00946 
L 592.609194 179.353575 
L 602.022866 171.984993 
L 611.335315 164.975084 
L 620.647765 158.242955 
L 629.75777 151.928883 
L 638.766553 145.955307 
L 647.471669 140.447678 
L 655.873118 135.391199 
L 663.9709 130.77426 
L 671.663793 126.641468 
L 678.850575 123.027412 
L 685.531245 119.910381 
L 691.604582 117.313745 
L 697.070585 115.212032 
L 701.72681 113.649314 
L 705.472034 112.610006 
L 708.103813 112.087444 
L 708.40748 112.05317 
L 708.40748 112.05317 
" clip-path="url(#p4d842d0135)" style="fill: none; stroke: #000000; stroke-width: 1.5; stroke-linecap: square"/>
   </g>
   <g id="line2d_22">
    <defs>
     <path id="m48b9bf5dc4" d="M 0 3 
C 0.795609 3 1.55874 2.683901 2.12132 2.12132 
C 2.683901 1.55874 3 0.795609 3 0 
C 3 -0.795609 2.683901 -1.55874 2.12132 -2.12132 
C 1.55874 -2.683901 0.795609 -3 0 -3 
C -0.795609 -3 -1.55874 -2.683901 -2.12132 -2.12132 
C -2.683901 -1.55874 -3 -0.795609 -3 0 
C -3 0.795609 -2.683901 1.55874 -2.12132 2.12132 
C -1.55874 2.683901 -0.795609 3 0 3 
z
" style="stroke: #000000"/>
    </defs>
    <g clip-path="url(#p4d842d0135)">
     <use xlink:href="#m48b9bf5dc4" x="708.508703" y="112.0464" style="stroke: #000000"/>
     <use xlink:href="#m48b9bf5dc4" x="915.554271" y="319.091969" style="stroke: #000000"/>
     <use xlink:href="#m48b9bf5dc4" x="685.503639" y="549.142601" style="stroke: #000000"/>
     <use xlink:href="#m48b9bf5dc4" x="455.453007" y="342.097032" style="stroke: #000000"/>
    </g>
   </g>
   <g id="line2d_23">
    <defs>
     <path id="mfeaa44e513" d="M 0 3 
C 0.795609 3 1.55874 2.683901 2.12132 2.12132 
C 2.683901 1.55874 3 0.795609 3 0 
C 3 -0.795609 2.683901 -1.55874 2.12132 -2.12132 
C 1.55874 -2.683901 0.795609 -3 0 -3 
C -0.795609 -3 -1.55874 -2.683901 -2.12132 -2.12132 
C -2.683901 -1.55874 -3 -0.795609 -3 0 
C -3 0.795609 -2.683901 1.55874 -2.12132 2.12132 
C -1.55874 2.683901 -0.795609 3 0 3 
z
" style="stroke: #0000ff"/>
    </defs>
    <g clip-path="url(#p4d842d0135)">
     <use xlink:href="#mfeaa44e513" x="697.036521" y="330.017857" style="fill: #0000ff; stroke: #0000ff"/>
    </g>
   </g>
   <g id="line2d_24">
    <path d="M 697.036521 330.017857 
L 432.447944 572.147664 
" clip-path="url(#p4d842d0135)" style="fill: none; stroke-dasharray: 1.5,2.475; stroke-dashoffset: 0; stroke: #0000ff; stroke-width: 1.5"/>
   </g>
   <g id="line2d_25">
    <g clip-path="url(#p4d842d0135)">
     <use xlink:href="#mfeaa44e513" x="432.447944" y="572.147664" style="fill: #0000ff; stroke: #0000ff"/>
    </g>
   </g>
   <g id="line2d_26">
    <defs>
     <path id="m86b3b72eeb" d="M 0 3 
C 0.795609 3 1.55874 2.683901 2.12132 2.12132 
C 2.683901 1.55874 3 0.795609 3 0 
C 3 -0.795609 2.683901 -1.55874 2.12132 -2.12132 
C 1.55874 -2.683901 0.795609 -3 0 -3 
C -0.795609 -3 -1.55874 -2.683901 -2.12132 -2.12132 
C -2.683901 -1.55874 -3 -0.795609 -3 0 
C -3 0.795609 -2.683901 1.55874 -2.12132 2.12132 
C -1.55874 2.683901 -0.795609 3 0 3 
z
" style="stroke: #ff0000"/>
    </defs>
    <g clip-path="url(#p4d842d0135)">
     <use xlink:href="#m86b3b72eeb" x="551.204776" y="464.186908" style="fill: #ff0000; stroke: #ff0000"/>
    </g>
   </g>
   <g id="line2d_27">
    <path d="M 708.508703 112.0464 
L 812.031487 180.421329 
L 915.554271 319.091969 
L 800.528955 473.170458 
L 685.503639 549.142601 
L 570.478323 480.767672 
L 455.453007 342.097032 
L 581.980855 188.018543 
L 708.508703 112.0464 
" clip-path="url(#p4d842d0135)" style="fill: none; stroke-dasharray: 5.55,2.4; stroke-dashoffset: 0; stroke: #00bfbf; stroke-width: 1.5"/>
   </g>
   <g id="line2d_28">
    <path d="M 705.067048 177.43784 
L 706.110558 177.62058 
L 708.313522 178.237496 
L 711.386079 179.340722 
L 715.154308 180.938889 
L 719.502265 183.028992 
L 724.371977 185.619081 
L 729.70547 188.709731 
L 735.444773 192.294762 
L 741.531913 196.361935 
L 747.908916 200.893542 
L 754.459838 205.822036 
L 761.184678 211.159996 
L 768.025464 216.875488 
L 774.866249 222.880038 
L 781.707035 229.179967 
L 788.489847 235.729817 
L 795.098742 242.419291 
L 801.533718 249.247269 
L 807.736803 256.152094 
L 813.650024 263.065357 
L 819.215409 269.910573 
L 824.432957 276.678531 
L 829.244696 283.283603 
L 833.592653 289.626567 
L 837.476828 295.68293 
L 840.839248 301.329201 
L 843.679913 306.519015 
L 845.998823 311.198094 
L 847.795979 315.298985 
L 849.07138 318.731109 
L 849.825026 321.365192 
L 849.998944 322.369735 
L 849.676873 324.022988 
L 848.903903 326.605461 
L 847.615619 330.066959 
L 845.812022 334.227571 
L 843.557526 338.85903 
L 840.787717 344.03693 
L 837.502594 349.699289 
L 833.702157 355.795947 
L 829.450822 362.189749 
L 824.748587 368.857464 
L 819.595453 375.774928 
L 814.055834 382.837082 
L 808.129729 390.029434 
L 801.881554 397.261847 
L 795.311308 404.524297 
L 788.54782 411.670132 
L 781.526675 418.763634 
L 774.376701 425.670749 
L 767.162314 432.333499 
L 759.883512 438.755374 
L 752.60471 444.882228 
L 745.390322 450.665562 
L 738.304763 456.062334 
L 731.412446 461.03491 
L 724.777786 465.551147 
L 718.465197 469.584597 
L 712.474678 473.151758 
L 706.935059 476.195774 
L 701.910753 478.709176 
L 697.466175 480.691826 
L 693.665739 482.150635 
L 690.702687 483.061167 
L 688.963504 483.405175 
L 687.804049 483.222435 
L 685.35631 482.605519 
L 682.006773 481.525001 
L 677.884266 479.95654 
L 673.117617 477.901949 
L 667.77124 475.352569 
L 661.90955 472.307474 
L 655.596961 468.772653 
L 648.962301 464.800058 
L 642.00557 460.372459 
L 634.855596 455.557186 
L 627.51238 450.342052 
L 620.10475 444.808685 
L 612.632706 438.949533 
L 605.160661 432.806277 
L 597.817445 426.482151 
L 590.603057 419.977237 
L 583.581912 413.34893 
L 576.818424 406.660874 
L 570.312592 399.91553 
L 564.193245 393.253896 
L 558.460384 386.689492 
L 553.114007 380.232246 
L 548.21853 373.972227 
L 543.838366 368.015271 
L 539.973515 362.392405 
L 536.623978 357.136163 
L 533.789754 352.281023 
L 531.535258 347.993398 
L 529.796075 344.219084 
L 528.63662 341.201397 
L 528.056893 339.208697 
L 527.928064 338.473279 
L 528.282342 336.820027 
L 529.132609 334.237553 
L 530.478866 330.936234 
L 532.321111 327.037109 
L 534.659346 322.618176 
L 537.564425 317.619681 
L 540.965493 312.221248 
L 544.862551 306.457163 
L 549.255598 300.358873 
L 554.144634 293.955857 
L 559.529659 287.276372 
L 565.339818 280.429534 
L 571.504254 273.509144 
L 578.093824 266.448698 
L 584.966817 259.410907 
L 592.123232 252.399952 
L 599.563069 245.423777 
L 607.144618 238.618204 
L 614.867877 231.981802 
L 622.732848 225.51736 
L 630.597819 219.340474 
L 638.46279 213.446884 
L 646.18605 207.935415 
L 653.767598 202.79566 
L 661.13658 198.066005 
L 668.222139 193.779198 
L 674.953421 189.962164 
L 681.259569 186.635669 
L 687.140583 183.781072 
L 692.454752 181.444991 
L 697.060366 179.653782 
L 700.957424 178.367854 
L 703.862503 177.626342 
L 705.067048 177.43784 
L 705.067048 177.43784 
" clip-path="url(#p4d842d0135)" style="fill: none; stroke-dasharray: 1.5,2.475; stroke-dashoffset: 0; stroke: #008000; stroke-width: 1.5"/>
   </g>
   <g id="line2d_29">
    <path d="M 708.508703 112.0464 
L 710.311496 112.229466 
L 714.045853 112.834073 
L 719.196691 113.899866 
L 725.506468 115.438207 
L 732.846412 117.463286 
L 740.958982 119.934757 
L 749.844177 122.875749 
L 759.373227 126.265198 
L 769.546132 130.122814 
L 780.234121 134.417881 
L 791.308423 139.111009 
L 802.640266 144.154684 
L 814.229652 149.554937 
L 826.076579 155.320739 
L 838.052277 161.397266 
L 850.027975 167.721897 
L 862.003674 174.296152 
L 873.979372 181.124331 
L 885.826299 188.136008 
L 897.415685 195.252265 
L 908.747528 202.468586 
L 919.82183 209.782871 
L 930.509819 217.105727 
L 940.811494 224.430254 
L 950.726858 231.75166 
L 960.127137 238.966722 
L 969.012332 246.0633 
L 977.382444 253.030544 
L 985.108701 259.744618 
L 992.319874 266.301419 
L 998.887192 272.567674 
L 1004.810656 278.51786 
L 1010.090265 284.123872 
L 1014.85479 289.504057 
L 1018.97546 294.493051 
L 1022.452276 299.052155 
L 1025.285237 303.132753 
L 1027.474343 306.668804 
L 1029.019595 309.558691 
L 1030.049762 311.952629 
L 1030.436075 313.347879 
L 1030.017803 315.459899 
L 1029.18126 318.263676 
L 1027.787021 322.077928 
L 1025.97451 326.376713 
L 1023.604303 331.415647 
L 1020.676401 337.096186 
L 1017.190803 343.349227 
L 1013.286933 349.895359 
L 1008.825368 356.94365 
L 1003.806107 364.45259 
L 998.22915 372.386587 
L 992.233922 380.528944 
L 985.680997 389.051645 
L 978.709802 397.755428 
L 971.18091 406.797071 
L 963.233747 415.991368 
L 954.868312 425.32919 
L 946.084605 434.800091 
L 936.882626 444.39247 
L 927.4018 453.955287 
L 917.502702 463.621947 
L 907.324756 473.24733 
L 896.867962 482.827227 
L 886.271744 492.233704 
L 875.396679 501.588272 
L 864.382189 510.766629 
L 853.3677 519.657227 
L 842.213786 528.374944 
L 831.059873 536.810873 
L 819.90596 544.968127 
L 808.89147 552.75075 
L 797.876981 560.260963 
L 787.141339 567.315198 
L 776.545121 574.014472 
L 766.227751 580.277746 
L 756.189229 586.115021 
L 746.429555 591.533867 
L 737.088153 596.46743 
L 728.165022 600.929323 
L 719.799587 604.866868 
L 711.991847 608.300697 
L 704.741804 611.248563 
L 698.18888 613.674955 
L 692.472499 615.560778 
L 687.592662 616.941707 
L 683.828216 617.785289 
L 681.75814 618.054381 
L 679.986026 617.767579 
L 676.914362 617.028204 
L 672.89757 615.825095 
L 668.053791 614.138525 
L 662.501167 611.968502 
L 656.239697 609.279261 
L 649.387522 606.09044 
L 641.944643 602.375348 
L 634.0292 598.169925 
L 625.759334 593.52271 
L 617.016904 588.350576 
L 608.038192 582.779206 
L 598.705058 576.723881 
L 589.135641 570.247256 
L 579.448084 563.422639 
L 569.524245 556.157569 
L 559.482265 548.526665 
L 549.440285 540.615013 
L 539.398305 532.420242 
L 529.356325 523.937344 
L 519.432485 515.263554 
L 509.626787 506.398888 
L 499.93923 497.340733 
L 490.487954 488.19982 
L 481.272961 478.979555 
L 472.294249 469.680832 
L 463.66996 460.430679 
L 455.400095 451.238113 
L 447.484651 442.11015 
L 439.923631 433.051477 
L 432.835175 424.214277 
L 426.219282 415.616472 
L 420.075953 407.275465 
L 414.405187 399.208076 
L 409.206986 391.4303 
L 404.599489 384.149137 
L 400.464556 377.210004 
L 396.802187 370.628847 
L 393.730523 364.657151 
L 391.249563 359.37257 
L 389.241167 354.585516 
L 387.823475 350.673232 
L 386.878348 347.432354 
L 386.523925 345.543486 
L 386.910307 343.925085 
L 387.811864 341.458786 
L 389.228597 338.319118 
L 391.160506 334.614972 
L 393.60759 330.416212 
L 396.56985 325.773388 
L 400.17608 320.545518 
L 404.297485 314.967775 
L 409.062859 308.903269 
L 414.34341 302.548869 
L 420.139136 295.921306 
L 426.578831 288.899923 
L 433.533703 281.650222 
L 441.003749 274.187093 
L 448.988972 266.52583 
L 457.48937 258.682142 
L 466.37615 250.784579 
L 475.778105 242.7295 
L 485.566443 234.639523 
L 495.741162 226.522507 
L 506.173468 218.485556 
L 516.863363 210.52996 
L 527.810845 202.659306 
L 539.015916 194.87935 
L 550.34978 187.282792 
L 561.683644 179.952454 
L 573.146302 172.804101 
L 584.60896 165.919703 
L 595.942824 159.372031 
L 607.147895 153.154815 
L 618.095377 147.331569 
L 628.785272 141.892654 
L 639.217578 136.83123 
L 649.263503 132.201284 
L 658.923047 127.99273 
L 668.067414 124.249934 
L 676.567813 121.006924 
L 684.424241 118.242999 
L 691.507906 115.980684 
L 697.690014 114.230086 
L 702.84177 112.987786 
L 706.834382 112.23924 
L 708.508703 112.0464 
L 708.508703 112.0464 
" clip-path="url(#p4d842d0135)" style="fill: none; stroke-dasharray: 9.6,2.4,1.5,2.4; stroke-dashoffset: 0; stroke: #bf00bf; stroke-width: 1.5"/>
   </g>
   <g id="patch_3">
    <path d="M 172.8 643.3632 
L 172.8 86.7456 
" style="fill: none; stroke: #000000; stroke-width: 0.8; stroke-linejoin: miter; stroke-linecap: square"/>
   </g>
   <g id="patch_4">
    <path d="M 1244.16 643.3632 
L 1244.16 86.7456 
" style="fill: none; stroke: #000000; stroke-width: 0.8; stroke-linejoin: miter; stroke-linecap: square"/>
   </g>
   <g id="patch_5">
    <path d="M 172.8 643.3632 
L 1244.16 643.3632 
" style="fill: none; stroke: #000000; stroke-width: 0.8; stroke-linejoin: miter; stroke-linecap: square"/>
   </g>
   <g id="patch_6">
    <path d="M 172.8 86.7456 
L 1244.16 86.7456 
" style="fill: none; stroke: #000000; stroke-width: 0.8; stroke-linejoin: miter; stroke-linecap: square"/>
   </g>
  </g>
 </g>
 <defs>
  <clipPath id="p4d842d0135">
   <rect x="172.8" y="86.7456" width="1071.36" height="556.6176"/>
  </clipPath>
 </defs>
</svg>
